# xmcd CD database file
#
# Track frame offsets:
#	150
#	17197
#	34745
#	46118
#	58341
#	67882
#	81099
#	103463
#	120818
#	135841
#	149401
#	160073
#	174546
#	187820
#	201335
#	212005
#	238709
#	258172
#
# Disc length: 3585 seconds
#
# Revision: 0
# Processed by: cddbd v1.5.1PL0 Copyright (c) Steve Scherf et al.
# Submitted via: CDex 1.51
#
DISCID=f40dff12
DTITLE=Various Artist - 08 love the one you're with
DYEAR=1999
DGENRE=Jazz
TTITLE0=THE SUPREMES and THE FOUR TOPS - Love The One You,re With
TTITLE1=GABOR SZABO - Sophisticated Wheels
TTITLE2=TANIA MARIA - Dona Flor
TTITLE3=QUINCY JONES - Boogie Bossa Nova
TTITLE4=JIMMY WITHERSPOON - Thoughts Of Home
TTITLE5=RAMSEY LEWIS - Back In The U.S.S.R.
TTITLE6=SYREETA - I Love Every Little Thing About You
TTITLE7=LOVE UNLIMITED - Move Me No Mountain
TTITLE8=EDDIE FISHER  QUINTET - Two By Two
TTITLE9=THE PEOPLES CHOICE - I Likes To Do It
TTITLE10=CASEY and HIS GROUP - Sir Henry The Dancer
TTITLE11=JOHNNY HALLYDAY - Noir C`est Noir
TTITLE12=DON SEBESKY - Big Mama Cass
TTITLE13=THE JACKSON SISTERS - I Believe In Miracles
TTITLE14=EMILIO SANTIAGO - Descarrego
TTITLE15=MEIRELLES - O Orvalho Vem Caindo
TTITLE16=JOANNE GRAUER FEAT. LORRAINE FEATHER - Can`t Sleep
TTITLE17=GREETJE KAUFFELD - Day By Day
EXTD=YEAR: 1999
EXTT0=
EXTT1=
EXTT2=
EXTT3=
EXTT4=
EXTT5=
EXTT6=
EXTT7=
EXTT8=
EXTT9=
EXTT10=
EXTT11=
EXTT12=
EXTT13=
EXTT14=
EXTT15=
EXTT16=
EXTT17=
PLAYORDER=
